<svg width="30" height="30" viewBox="0 0 30 30" fill="none" xmlns="http://www.w3.org/2000/svg">
<path d="M7.85714 5H22.1429C22.9006 5 23.6273 5.30102 24.1632 5.83684C24.699 6.37266 25 7.09938 25 7.85714V22.1429C25 22.9006 24.699 23.6273 24.1632 24.1632C23.6273 24.699 22.9006 25 22.1429 25H7.85714C7.09938 25 6.37266 24.699 5.83684 24.1632C5.30102 23.6273 5 22.9006 5 22.1429V7.85714C5 7.09938 5.30102 6.37266 5.83684 5.83684C6.37266 5.30102 7.09938 5 7.85714 5Z" fill="#8B41E0" stroke="#8B41E0" stroke-linecap="round" stroke-linejoin="round"/>
<path d="M12.7802 17.9317L20.4408 10.2712C20.6216 10.0904 20.8364 10 21.0853 10C21.3341 10 21.5487 10.0904 21.7288 10.2712C21.9096 10.4519 22 10.6668 22 10.9156C22 11.1645 21.9096 11.379 21.7288 11.5592L13.413 19.8751C13.2322 20.0559 13.0213 20.1463 12.7802 20.1463C12.5392 20.1463 12.3283 20.0559 12.1475 19.8751L8.26074 15.9883C8.07996 15.8075 7.99319 15.5927 8.00042 15.3438C8.00765 15.095 8.10195 14.8805 8.28334 14.7003C8.46412 14.5195 8.67894 14.4291 8.92782 14.4291C9.17669 14.4291 9.39122 14.5195 9.57139 14.7003L12.7802 17.9317Z" fill="#160132" stroke="none"/>
</svg>
