<svg width="47" height="46" viewBox="0 0 47 46" fill="none" xmlns="http://www.w3.org/2000/svg">
<path d="M23.2813 16.2312L16.8193 27.4238C16.3597 28.2497 16.2432 29.2232 16.4951 30.1342C16.7469 31.0452 17.3468 31.8207 18.1654 32.2933C18.9839 32.7658 19.9554 32.8977 20.8703 32.6602C21.7852 32.4228 22.57 31.8352 23.0555 31.0243L31.5356 16.3596C31.948 15.665 32.2184 14.8954 32.3311 14.0955C32.4438 13.2955 32.3967 12.4812 32.1923 11.6997C31.988 10.9181 31.6305 10.1849 31.1407 9.54253C30.6509 8.90016 30.0384 8.3614 29.3388 7.95749C28.6392 7.55358 27.8664 7.29255 27.0652 7.18954C26.264 7.08653 25.4503 7.14358 24.6713 7.35739C23.8923 7.5712 23.1635 7.93751 22.5271 8.43509C21.8907 8.93267 21.3594 9.55162 20.964 10.2561L12.4369 25.0254C11.8541 26.002 11.4712 27.0847 11.3105 28.2106C11.1498 29.3366 11.2146 30.4832 11.501 31.5838C11.7874 32.6845 12.2897 33.7173 12.9788 34.6221C13.6679 35.5268 14.53 36.2856 15.5149 36.8543C16.4999 37.423 17.588 37.7901 18.7162 37.9345C19.8443 38.0789 20.9898 37.9976 22.0862 37.6953C23.1827 37.3929 24.208 36.8757 25.1028 36.1736C25.9975 35.4715 26.7437 34.5985 27.2981 33.6055L35.2663 19.8041" stroke="#520086" stroke-miterlimit="10" stroke-linecap="round"/>
</svg>
