<svg width="160" height="78" viewBox="0 0 160 78" fill="none" xmlns="http://www.w3.org/2000/svg">
<path fill-rule="evenodd" clip-rule="evenodd" d="M49.375 6.625C50.7557 6.625 51.875 5.50571 51.875 4.125C51.875 2.74429 50.7557 1.625 49.375 1.625C47.9943 1.625 46.875 2.74429 46.875 4.125C46.875 5.50571 47.9943 6.625 49.375 6.625ZM49.375 8.125C51.5841 8.125 53.375 6.33414 53.375 4.125C53.375 1.91586 51.5841 0.125 49.375 0.125C47.3859 0.125 45.7359 1.57692 45.4269 3.47878C26.9297 5.82217 13.625 21.8407 13.625 41.1781C13.625 48.2738 15.9384 54.4832 20.5675 59.6267C20.8446 59.9346 21.3188 59.9596 21.6267 59.6825C21.9346 59.4054 21.9596 58.9312 21.6825 58.6233C17.3116 53.7668 15.125 47.919 15.125 41.1781C15.125 22.585 27.8561 7.29436 45.4679 4.98594C45.8617 6.78128 47.4614 8.125 49.375 8.125ZM16.375 14.625C17.7557 14.625 18.875 13.5057 18.875 12.125C18.875 10.7443 17.7557 9.625 16.375 9.625C14.9943 9.625 13.875 10.7443 13.875 12.125C13.875 13.5057 14.9943 14.625 16.375 14.625ZM16.375 16.125C18.5841 16.125 20.375 14.3341 20.375 12.125C20.375 9.91586 18.5841 8.125 16.375 8.125C14.1659 8.125 12.375 9.91586 12.375 12.125C12.375 13.2349 12.827 14.2392 13.557 14.9638C7.38794 21.6426 3.625 30.5193 3.625 40.2612C3.625 61.046 20.7428 77.875 41.8334 77.875C51.3503 77.875 60.0572 74.4488 66.7472 68.7799C67.2445 69.0017 67.7953 69.125 68.375 69.125C70.5841 69.125 72.375 67.3341 72.375 65.125C72.375 62.9159 70.5841 61.125 68.375 61.125C66.1659 61.125 64.375 62.9159 64.375 65.125C64.375 66.1952 64.7953 67.1672 65.4798 67.8851C59.0929 73.1823 50.8436 76.375 41.8334 76.375C21.5485 76.375 5.125 60.195 5.125 40.2612C5.125 30.8309 8.79817 22.2446 14.8179 15.8106C15.2965 16.013 15.8227 16.125 16.375 16.125ZM31.2735 22.1128C34.4289 18.4272 37.4466 16.1322 40.6217 14.7502C43.7988 13.3673 47.1875 12.875 51.125 12.875C56.2276 12.875 59.919 14.0818 63.8475 15.5588C63.7539 15.8982 63.7039 16.2558 63.7039 16.625C63.7039 18.8341 65.4947 20.625 67.7039 20.625C69.913 20.625 71.7039 18.8341 71.7039 16.625C71.7039 14.4159 69.913 12.625 67.7039 12.625C66.4029 12.625 65.247 13.2461 64.5165 14.2078C60.4898 12.6895 56.5639 11.375 51.125 11.375C47.0625 11.375 43.4513 11.8827 40.0231 13.3748C36.5929 14.8678 33.3999 17.3228 30.1341 21.1372C29.8647 21.4519 29.9014 21.9253 30.216 22.1947C30.5307 22.4641 31.0042 22.4274 31.2735 22.1128ZM70.2039 16.625C70.2039 18.0057 69.0846 19.125 67.7039 19.125C66.3231 19.125 65.2039 18.0057 65.2039 16.625C65.2039 15.2443 66.3231 14.125 67.7039 14.125C69.0846 14.125 70.2039 15.2443 70.2039 16.625Z" fill="url(#paint0_linear_743_1587)"/>
<path d="M73.145 44.652L73.739 43.486C74.4137 44.0727 75.169 44.5127 76.005 44.806C76.8557 45.0847 77.7063 45.2313 78.557 45.246C79.4077 45.246 80.185 45.1213 80.889 44.872C81.6077 44.6227 82.187 44.256 82.627 43.772C83.067 43.2733 83.287 42.672 83.287 41.968C83.287 41.0733 82.9277 40.384 82.209 39.9C81.505 39.416 80.5223 39.174 79.261 39.174H75.961V37.854H79.173C80.2583 37.854 81.1017 37.6267 81.703 37.172C82.319 36.7027 82.627 36.0573 82.627 35.236C82.627 34.6493 82.451 34.1507 82.099 33.74C81.7617 33.3147 81.2923 32.992 80.691 32.772C80.1043 32.5373 79.4443 32.4127 78.711 32.398C77.9777 32.3687 77.215 32.464 76.423 32.684C75.6457 32.8893 74.8903 33.2193 74.157 33.674L73.629 32.332C74.5383 31.7893 75.4843 31.4153 76.467 31.21C77.4497 30.99 78.403 30.9167 79.327 30.99C80.251 31.0633 81.0797 31.276 81.813 31.628C82.561 31.98 83.155 32.442 83.595 33.014C84.035 33.586 84.255 34.268 84.255 35.06C84.255 35.7933 84.0643 36.4387 83.683 36.996C83.3163 37.5533 82.7957 37.986 82.121 38.294C81.461 38.5873 80.6763 38.734 79.767 38.734L79.855 38.25C80.8817 38.25 81.769 38.4113 82.517 38.734C83.2797 39.0567 83.8663 39.5187 84.277 40.12C84.7023 40.7067 84.915 41.396 84.915 42.188C84.915 42.936 84.7243 43.6033 84.343 44.19C83.9763 44.762 83.463 45.246 82.803 45.642C82.1577 46.0233 81.4317 46.302 80.625 46.478C79.8183 46.6393 78.975 46.6833 78.095 46.61C77.215 46.5367 76.3497 46.346 75.499 46.038C74.6483 45.7153 73.8637 45.2533 73.145 44.652ZM88.5833 46.5V34.95H93.6873C94.9927 34.95 96.0193 35.1993 96.7673 35.698C97.53 36.1967 97.9113 36.93 97.9113 37.898C97.9113 38.8367 97.552 39.5627 96.8333 40.076C96.1147 40.5747 95.1687 40.824 93.9953 40.824L94.3033 40.362C95.682 40.362 96.694 40.6187 97.3393 41.132C97.9847 41.6453 98.3073 42.386 98.3073 43.354C98.3073 44.3513 97.9407 45.1287 97.2073 45.686C96.4887 46.2287 95.3667 46.5 93.8413 46.5H88.5833ZM90.1013 45.268H93.7753C94.758 45.268 95.4987 45.114 95.9973 44.806C96.5107 44.4833 96.7673 43.97 96.7673 43.266C96.7673 42.562 96.54 42.0487 96.0853 41.726C95.6307 41.4033 94.912 41.242 93.9293 41.242H90.1013V45.268ZM90.1013 40.076H93.5773C94.472 40.076 95.154 39.9073 95.6233 39.57C96.1073 39.2327 96.3493 38.7413 96.3493 38.096C96.3493 37.4507 96.1073 36.9667 95.6233 36.644C95.154 36.3213 94.472 36.16 93.5773 36.16H90.1013V40.076ZM100.978 35.544L101.946 31.496L102.122 32.42C101.785 32.42 101.499 32.3173 101.264 32.112C101.044 31.892 100.934 31.606 100.934 31.254C100.934 30.902 101.044 30.616 101.264 30.396C101.499 30.176 101.777 30.066 102.1 30.066C102.437 30.066 102.709 30.1833 102.914 30.418C103.134 30.638 103.244 30.9167 103.244 31.254C103.244 31.3713 103.237 31.4887 103.222 31.606C103.207 31.7233 103.178 31.8553 103.134 32.002C103.105 32.134 103.053 32.3027 102.98 32.508L102.034 35.544H100.978ZM114.088 46.5V42.342L114.374 42.672H110.458C108.977 42.672 107.818 42.3493 106.982 41.704C106.146 41.0587 105.728 40.12 105.728 38.888C105.728 37.568 106.176 36.5853 107.07 35.94C107.965 35.28 109.16 34.95 110.656 34.95H115.518V46.5H114.088ZM105.64 46.5L108.808 42.056H110.436L107.334 46.5H105.64ZM114.088 41.88V35.852L114.374 36.314H110.7C109.63 36.314 108.794 36.5193 108.192 36.93C107.606 37.3407 107.312 38.008 107.312 38.932C107.312 40.648 108.405 41.506 110.59 41.506H114.374L114.088 41.88ZM122.838 46.632C122.002 46.632 121.173 46.5147 120.352 46.28C119.53 46.0453 118.804 45.686 118.174 45.202L118.68 44.036C119.237 44.4467 119.882 44.762 120.616 44.982C121.349 45.1873 122.075 45.29 122.794 45.29C123.512 45.2753 124.136 45.1727 124.664 44.982C125.192 44.7913 125.602 44.5273 125.896 44.19C126.189 43.8527 126.336 43.4713 126.336 43.046C126.336 42.43 126.057 41.9533 125.5 41.616C124.942 41.264 124.18 41.088 123.212 41.088H121.232V39.944H123.102C123.674 39.944 124.18 39.8707 124.62 39.724C125.06 39.5773 125.397 39.3647 125.632 39.086C125.881 38.8073 126.006 38.4773 126.006 38.096C126.006 37.6853 125.859 37.3333 125.566 37.04C125.287 36.7467 124.898 36.5267 124.4 36.38C123.901 36.2333 123.336 36.16 122.706 36.16C122.134 36.1747 121.54 36.2627 120.924 36.424C120.308 36.5707 119.699 36.798 119.098 37.106L118.658 35.896C119.332 35.544 120 35.28 120.66 35.104C121.334 34.9133 122.009 34.818 122.684 34.818C123.608 34.7887 124.436 34.8987 125.17 35.148C125.918 35.3973 126.512 35.7567 126.952 36.226C127.392 36.6807 127.612 37.2307 127.612 37.876C127.612 38.448 127.436 38.9467 127.084 39.372C126.732 39.7973 126.262 40.1273 125.676 40.362C125.089 40.5967 124.422 40.714 123.674 40.714L123.74 40.296C125.06 40.296 126.086 40.5527 126.82 41.066C127.568 41.5793 127.942 42.276 127.942 43.156C127.942 43.8453 127.714 44.454 127.26 44.982C126.805 45.4953 126.189 45.8987 125.412 46.192C124.649 46.4853 123.791 46.632 122.838 46.632ZM136.24 46.61C135.125 46.61 134.12 46.3607 133.226 45.862C132.346 45.3487 131.649 44.652 131.136 43.772C130.622 42.8773 130.366 41.858 130.366 40.714C130.366 39.5553 130.622 38.536 131.136 37.656C131.649 36.776 132.346 36.0867 133.226 35.588C134.106 35.0893 135.11 34.84 136.24 34.84C137.384 34.84 138.396 35.0893 139.276 35.588C140.17 36.0867 140.867 36.776 141.366 37.656C141.879 38.536 142.136 39.5553 142.136 40.714C142.136 41.858 141.879 42.8773 141.366 43.772C140.867 44.652 140.17 45.3487 139.276 45.862C138.381 46.3607 137.369 46.61 136.24 46.61ZM136.24 45.224C137.076 45.224 137.816 45.0407 138.462 44.674C139.107 44.2927 139.613 43.7647 139.98 43.09C140.361 42.4007 140.552 41.6087 140.552 40.714C140.552 39.8047 140.361 39.0127 139.98 38.338C139.613 37.6633 139.107 37.1427 138.462 36.776C137.816 36.3947 137.083 36.204 136.262 36.204C135.44 36.204 134.707 36.3947 134.062 36.776C133.416 37.1427 132.903 37.6633 132.522 38.338C132.14 39.0127 131.95 39.8047 131.95 40.714C131.95 41.6087 132.14 42.4007 132.522 43.09C132.903 43.7647 133.416 44.2927 134.062 44.674C134.707 45.0407 135.433 45.224 136.24 45.224ZM153.944 46.5L149.192 40.78L150.49 40.01L155.792 46.5H153.944ZM145.474 46.5V34.95H147.036V46.5H145.474ZM146.552 41.352V40.01H150.27V41.352H146.552ZM150.622 40.89L149.17 40.67L153.768 34.95H155.462L150.622 40.89Z" fill="white"/>
<path d="M24.978 47.125L31.952 31.725H34.13L41.126 47.125H38.816L32.59 32.957H33.47L27.244 47.125H24.978ZM27.948 43.275L28.542 41.515H37.21L37.848 43.275H27.948ZM43.1153 47.125V35.465H45.1393V38.633L44.9413 37.841C45.2639 37.0343 45.8066 36.4183 46.5693 35.993C47.3319 35.5677 48.2706 35.355 49.3853 35.355V37.401C49.2973 37.3863 49.2093 37.379 49.1213 37.379C49.0479 37.379 48.9746 37.379 48.9013 37.379C47.7719 37.379 46.8773 37.7163 46.2173 38.391C45.5573 39.0657 45.2273 40.041 45.2273 41.317V47.125H43.1153ZM56.465 47.257C55.2917 47.257 54.3823 46.9417 53.737 46.311C53.0917 45.6803 52.769 44.7783 52.769 43.605V32.913H54.881V43.517C54.881 44.1477 55.035 44.6317 55.343 44.969C55.6657 45.3063 56.1203 45.475 56.707 45.475C57.367 45.475 57.917 45.2917 58.357 44.925L59.017 46.443C58.6943 46.7217 58.3057 46.927 57.851 47.059C57.411 47.191 56.949 47.257 56.465 47.257ZM50.789 37.203V35.465H58.225V37.203H50.789Z" fill="white"/>
<defs>
<linearGradient id="paint0_linear_743_1587" x1="3.625" y1="39.6171" x2="66.4811" y2="58.8646" gradientUnits="userSpaceOnUse">
<stop stop-color="#FF269B"/>
<stop offset="0.310417" stop-color="#E227B3"/>
<stop offset="0.576042" stop-color="#C629CC"/>
<stop offset="0.820833" stop-color="#A92BE4"/>
<stop offset="1" stop-color="#892DFF"/>
</linearGradient>
</defs>
</svg>
