<svg width="36" height="36" viewBox="0 0 36 36" fill="none" xmlns="http://www.w3.org/2000/svg">
<g id="ph:arrow-up-thin">
<path id="Vector" d="M16.1479 7.47672C16.2002 7.52896 16.2417 7.591 16.27 7.65928C16.2983 7.72757 16.3129 7.80077 16.3129 7.87469C16.3129 7.94861 16.2983 8.0218 16.27 8.09009C16.2417 8.15838 16.2002 8.22041 16.1479 8.27266L6.98339 17.4372L30.3749 17.4372C30.5241 17.4372 30.6672 17.4964 30.7727 17.6019C30.8782 17.7074 30.9374 17.8505 30.9374 17.9997C30.9374 18.1489 30.8782 18.2919 30.7727 18.3974C30.6672 18.5029 30.5241 18.5622 30.3749 18.5622L6.98339 18.5622L16.1479 27.7267C16.2002 27.779 16.2416 27.841 16.2699 27.9093C16.2982 27.9776 16.3128 28.0508 16.3128 28.1247C16.3128 28.1986 16.2982 28.2718 16.2699 28.3401C16.2416 28.4083 16.2002 28.4704 16.1479 28.5227C16.0957 28.5749 16.0336 28.6164 15.9653 28.6447C15.897 28.6729 15.8239 28.6875 15.75 28.6875C15.676 28.6875 15.6029 28.6729 15.5346 28.6447C15.4663 28.6164 15.4042 28.5749 15.352 28.5227L5.22698 18.3977C5.17469 18.3454 5.1332 18.2834 5.10489 18.2151C5.07658 18.1468 5.06201 18.0736 5.06201 17.9997C5.06201 17.9258 5.07658 17.8526 5.10489 17.7843C5.1332 17.716 5.17469 17.654 5.22698 17.6017L15.352 7.47672C15.4042 7.42442 15.4663 7.38293 15.5345 7.35462C15.6028 7.32631 15.676 7.31174 15.75 7.31174C15.8239 7.31174 15.8971 7.32631 15.9654 7.35462C16.0336 7.38293 16.0957 7.42442 16.1479 7.47672Z" fill="#A32CE9"/>
</g>
</svg>
