<svg width="31" height="31" viewBox="0 0 31 31" fill="none" xmlns="http://www.w3.org/2000/svg">
<g clip-path="url(#clip0_192_24)">
<path d="M10.9508 1.48642C7.95335 2.52627 5.36834 4.49994 3.57548 7.11752C1.78262 9.73511 0.876419 12.8586 0.989976 16.0293C1.10353 19.2 2.23087 22.2507 4.20639 24.7333C6.18191 27.2159 8.90148 28.9996 11.9657 29.8224C14.4499 30.4634 17.0526 30.4915 19.55 29.9044C21.8125 29.3962 23.9042 28.3092 25.6203 26.7497C27.4065 25.0771 28.7029 22.9493 29.3703 20.595C30.0955 18.0348 30.2246 15.3425 29.7477 12.7247H15.7977V18.5114H23.8766C23.7151 19.4344 23.3691 20.3152 22.8593 21.1013C22.3495 21.8874 21.6863 22.5626 20.9094 23.0864C19.923 23.7392 18.8109 24.1783 17.6446 24.3755C16.4749 24.593 15.2752 24.593 14.1055 24.3755C12.9199 24.1306 11.7984 23.6413 10.8125 22.9388C9.22851 21.8175 8.03912 20.2245 7.4141 18.3872C6.77868 16.5154 6.77868 14.4863 7.4141 12.6145C7.859 11.3026 8.59449 10.108 9.56566 9.12002C10.677 7.96864 12.0841 7.14564 13.6324 6.74129C15.1808 6.33695 16.8106 6.36689 18.343 6.82783C19.5402 7.19515 20.6349 7.83723 21.5399 8.70283C22.4508 7.79658 23.3602 6.88799 24.268 5.97705C24.7368 5.48721 25.2477 5.0208 25.7094 4.51924C24.3278 3.23373 22.7063 2.23339 20.9375 1.57549C17.7165 0.405932 14.1922 0.374501 10.9508 1.48642Z" fill="white"/>
<path d="M10.9508 1.48659C14.1918 0.373908 17.7162 0.404511 20.9375 1.57331C22.7065 2.23568 24.3274 3.24084 25.707 4.53112C25.2383 5.03268 24.7437 5.50143 24.2656 5.98893C23.3562 6.89674 22.4476 7.80143 21.5398 8.70299C20.6349 7.8374 19.5401 7.19531 18.3429 6.82799C16.811 6.36543 15.1813 6.33376 13.6325 6.73645C12.0838 7.13914 10.6759 7.96064 9.56326 9.11081C8.59208 10.0988 7.8566 11.2933 7.41169 12.6053L2.5531 8.84362C4.29218 5.39493 7.30329 2.75696 10.9508 1.48659Z" fill="#E33629"/>
<path d="M1.26401 12.5703C1.52496 11.276 1.95852 10.0226 2.55307 8.84375L7.41166 12.6148C6.77625 14.4866 6.77625 16.5157 7.41166 18.3875C5.79291 19.6375 4.17338 20.8938 2.55307 22.1563C1.06514 19.1945 0.611349 15.8199 1.26401 12.5703Z" fill="#F8BD00"/>
<path d="M15.8135 12.375H29.7635C30.2405 14.9928 30.1114 17.6851 29.3862 20.2453C28.7188 22.5996 27.4223 24.7274 25.6362 26.4C24.0682 25.1766 22.4932 23.9625 20.9253 22.7391C21.7026 22.2147 22.3661 21.5388 22.876 20.7519C23.3858 19.9649 23.7316 19.0831 23.8924 18.1594H15.8135C15.8112 16.2328 15.8135 14.3039 15.8135 12.375Z" fill="#587DBD"/>
<path d="M2.55078 22.1564C4.17109 20.9064 5.79062 19.6502 7.40937 18.3877C8.03564 20.2257 9.22673 21.8187 10.8125 22.9393C11.8014 23.6386 12.9254 24.1239 14.1125 24.3643C15.2822 24.5818 16.4819 24.5818 17.6516 24.3643C18.8179 24.1671 19.93 23.728 20.9164 23.0752C22.4844 24.2986 24.0594 25.5127 25.6273 26.7361C23.9115 28.2964 21.8197 29.3843 19.557 29.8932C17.0596 30.4803 14.4569 30.4521 11.9727 29.8111C10.0079 29.2865 8.17268 28.3617 6.58203 27.0947C4.89858 25.7579 3.52352 24.0734 2.55078 22.1564Z" fill="#319F43"/>
</g>
<defs>
<clipPath id="clip0_192_24">
<rect width="30" height="30" fill="white" transform="translate(0.5 0.5)"/>
</clipPath>
</defs>
</svg>
