<svg width="48" height="48" viewBox="0 0 48 48" fill="none" xmlns="http://www.w3.org/2000/svg">
<g id="skill-icons:discord" clip-path="url(#clip0_68_932)">
<g id="Group">
<path id="Vector" d="M36.75 0H11.25C5.0368 0 0 5.0368 0 11.25V36.75C0 42.9632 5.0368 48 11.25 48H36.75C42.9632 48 48 42.9632 48 36.75V11.25C48 5.0368 42.9632 0 36.75 0Z" fill="url(#paint0_linear_68_932)"/>
<g id="Clip path group">
<mask id="mask0_68_932" style="mask-type:luminance" maskUnits="userSpaceOnUse" x="5" y="9" width="38" height="30">
<g id="skillIconsDiscord0">
<path id="Vector_2" d="M5.25 9.5625H42.75V38.6119H5.25V9.5625Z" fill="white"/>
</g>
</mask>
<g mask="url(#mask0_68_932)">
<g id="Group_2">
<path id="Vector_3" d="M36.9951 12.1498C34.5639 11.0337 31.9982 10.2379 29.3622 9.78221C29.3382 9.77778 29.3135 9.78101 29.2915 9.79144C29.2695 9.80188 29.2513 9.81898 29.2396 9.84033C28.9099 10.4265 28.5447 11.1915 28.2891 11.7926C25.4067 11.361 22.5393 11.361 19.7161 11.7926C19.4603 11.178 19.0819 10.4265 18.7508 9.84033C18.7386 9.81942 18.7203 9.80269 18.6984 9.79232C18.6765 9.78195 18.652 9.77843 18.628 9.78221C15.9918 10.237 13.4259 11.0329 10.9951 12.1498C10.9743 12.1586 10.9567 12.1737 10.9448 12.1929C6.08332 19.4559 4.7517 26.5404 5.40495 33.5371C5.40677 33.5543 5.41202 33.5709 5.4204 33.586C5.42877 33.6011 5.4401 33.6143 5.4537 33.6249C8.66107 35.9805 11.7681 37.4105 14.8174 38.3583C14.8412 38.3654 14.8665 38.3651 14.89 38.3574C14.9135 38.3497 14.9341 38.3349 14.9491 38.3152C15.6704 37.3301 16.3133 36.2915 16.8648 35.1993C16.8724 35.1844 16.8767 35.168 16.8775 35.1512C16.8783 35.1345 16.8755 35.1177 16.8694 35.1021C16.8632 35.0865 16.8538 35.0724 16.8418 35.0607C16.8298 35.0489 16.8155 35.0399 16.7997 35.0341C15.7797 34.6471 14.8086 34.1756 13.8745 33.6399C13.8575 33.6299 13.8432 33.6158 13.8329 33.599C13.8226 33.5821 13.8166 33.563 13.8154 33.5433C13.8143 33.5236 13.818 33.5039 13.8262 33.4859C13.8345 33.468 13.847 33.4524 13.8627 33.4404C14.0598 33.2931 14.2534 33.1413 14.4436 32.9851C14.4602 32.9714 14.4804 32.9625 14.5018 32.9596C14.5232 32.9567 14.545 32.9598 14.5647 32.9686C20.7019 35.7706 27.346 35.7706 33.4107 32.9686C33.4305 32.9593 33.4525 32.9557 33.4743 32.9583C33.496 32.961 33.5166 32.9698 33.5335 32.9836C33.7238 33.1407 33.918 33.293 34.1159 33.4404C34.1317 33.4522 34.1443 33.4678 34.1527 33.4857C34.161 33.5035 34.1649 33.5232 34.1638 33.5429C34.1628 33.5626 34.157 33.5817 34.1468 33.5987C34.1367 33.6156 34.1225 33.6297 34.1056 33.6399C33.1709 34.1856 32.1919 34.6515 31.1789 35.0326C31.1632 35.0387 31.1489 35.0479 31.137 35.0598C31.1251 35.0717 31.1158 35.086 31.1098 35.1018C31.1038 35.1175 31.1012 35.1343 31.1021 35.1511C31.1031 35.1679 31.1076 35.1844 31.1153 35.1993C31.6763 36.2829 32.316 37.3238 33.0293 38.3137C33.0438 38.334 33.0644 38.3492 33.088 38.3572C33.1116 38.3652 33.1371 38.3656 33.1609 38.3583C36.2251 37.4105 39.3321 35.9805 42.5397 33.6249C42.5534 33.6148 42.5649 33.6018 42.5733 33.587C42.5817 33.5721 42.5869 33.5556 42.5884 33.5386C43.3703 25.4497 41.2788 18.4231 37.0439 12.1944C37.0335 12.1742 37.0162 12.1583 36.9951 12.1498ZM17.7813 29.277C15.9334 29.277 14.4109 27.5806 14.4109 25.4973C14.4109 23.414 15.904 21.7177 17.7813 21.7177C19.6731 21.7177 21.1808 23.429 21.1512 25.4973C21.1512 27.5806 19.6585 29.277 17.7813 29.277ZM30.2418 29.277C28.3939 29.277 26.8716 27.5806 26.8716 25.4973C26.8716 23.414 28.3645 21.7177 30.2418 21.7177C32.1336 21.7177 33.6413 23.429 33.6119 25.4973C33.6119 27.5806 32.1336 29.277 30.2418 29.277Z" fill="white"/>
</g>
</g>
</g>
</g>
</g>
<defs>
<linearGradient id="paint0_linear_68_932" x1="0" y1="0" x2="51.5916" y2="26.1863" gradientUnits="userSpaceOnUse">
<stop offset="0.258333" stop-color="#5865F2"/>
<stop offset="0.701042" stop-color="#BC3CD1"/>
<stop offset="1" stop-color="#FF2AC3"/>
</linearGradient>
<clipPath id="clip0_68_932">
<rect width="48" height="48" fill="white"/>
</clipPath>
</defs>
</svg>
